<svg width="49" height="52" fill="none" xmlns="http://www.w3.org/2000/svg">
    <g clip-path="url('#clip0_1589_4025')">
        <path d="M11.562 9.804C17.611.278 30.117-2.715 39.496 3.12 48.876 8.954 53 19 45.527 30.932L37.95 42.867C29.5 51 20.942 53.834 11.562 48 2.183 42.166-2.064 31.265 3.984 21.74l7.578-11.936Z"
              fill="#FFBC50" fill-opacity=".7"/>
        <path d="m37.417 36.863 2.27-20.374-26.79-.151s-2.02 0-2.02 1.383c0 .965 2.02 18.825 2.02 18.825l24.52.317Z"
              fill="#fff"/>
        <path d="M37.222 34.074c-.123-.82-.353-2.213-.466-3.034-.26-1.875-.33-4.125-.708-7.043-.208-1.59-.435-3.171-.568-4.77-.057-.681-.034-.71-.74-.71-2.932-.005-5.86.004-8.793.017-.264 0-15.417-.162-18.233-.181-.607-.005-.661.054-.508.628.362 1.346.646 2.71.918 4.078.375 1.884.622 3.787.952 5.676.47 2.693.955 5.38 1.308 8.093.104.792.568 1.403 1.066 1.991.26.306.63.238.97.238 3.622.002 7.247 0 10.87.005 4.395.004 8.792.014 13.187.019.266 0 .533-.005.8-.02.621-.039.954-.361 1.06-.945.353-1.965.526-3.951.783-5.926.244-1.879.587-3.738.876-5.607.249-1.608.5-3.216.617-4.846.076-1.095.37-2.172.528-3.264.163-1.117.249-2.241.23-3.372-.006-.308-.206-.428-.438-.487-.434-.11-.866-.227-1.33-.22a80.922 80.922 0 0 1-3.356-.014c-.592-.015-1.157.173-1.744.18-.22.003-.434.118-.523.318-.141.318-.37.572-.546.863-.254.422-.177.562.316.567 1.227.007 2.45-.003 3.677-.005.318 0 .642-.022.957.017.462.056.74.379.664.811-.279 1.566-.202 3.145-.215 4.718a16.465 16.465 0 0 1-.293 2.974c-.025.13-.022.264-.037.391-.422 3.18-.674 6.593-1.098 8.86l-.178.005-.005-.005Z"
              fill="#D5751F"/>
        <path d="M21.622 26.237c-.01.162-.035.32-.03.482.012.466-.13.745-.659.698-.264-.024-.535.032-.802.069-.656.095-.928.45-.864 1.146.062.667.533.699 1.037.67 1.288-.081 1.285-.081 1.308 1.31.007.478-.06 1.018.636 1.067.57.039 1-.327 1.118-.97.037-.2.077-.42.035-.616-.156-.75.145-1.016.854-.928.15.02.31-.037.466-.05.54-.043.802-.363.826-.898.025-.553-.306-.76-.782-.836-1.113-.178-1.11-.183-1.283-1.29a4.077 4.077 0 0 0-.148-.667c-.145-.44-.417-.675-.915-.597-.47.074-.74.291-.76.794-.008.206-.028.414-.042.619h.007l-.002-.003Z"
              fill="#FDEBDC"/>
        <path d="M28.12 35.952c.336-.262.383-.621.124-.941-.24-.298-.555-.337-.846-.105a.666.666 0 0 0-.121.936c.244.303.545.342.841.11h.003Z"
              fill="#D3E1CC"/>
        <path d="M22.369 36.194c.335-.262.382-.62.123-.94-.239-.299-.555-.338-.846-.106a.666.666 0 0 0-.121.936c.244.303.545.342.841.11h.003Z"
              fill="#F6A054"/>
        <path d="M16.13 34.196c.336-.262.383-.62.124-.941-.24-.298-.555-.337-.846-.105a.666.666 0 0 0-.121.936c.244.303.545.342.841.11h.003Z"
              fill="#FFBC50"/>
        <path d="M29.404 23.56c.336-.262.383-.622.123-.942-.239-.298-.555-.337-.846-.105a.666.666 0 0 0-.12.936c.244.303.544.342.84.11h.003Z"
              fill="#F6A054"/>
        <path d="M24.885 21.733c.335-.262.382-.62.123-.94-.24-.299-.555-.338-.846-.106a.666.666 0 0 0-.121.936c.244.303.545.342.841.11h.003Z"
              fill="#D3E1CC"/>
        <path d="M32.4 26.87c.357-.284.412-.582.167-.885-.2-.245-.604-.272-.87-.054a.624.624 0 0 0-.097.88c.227.283.493.302.8.058Z"
              fill="#FDEBDC"/>
        <path d="M31.325 32.7c.229.283.577.33.85.117.27-.21.341-.575.161-.807-.205-.261-.703-.317-.962-.112-.26.205-.276.518-.047.799l-.003.002Z"
              fill="#5B7E73"/>
        <path d="M19.03 19.759c-.417.085-.621.384-.537.784.079.372.343.548.708.472.37-.078.61-.428.533-.782-.082-.379-.333-.547-.704-.474Z"
              fill="#FFBC50"/>
        <path d="M11.97 28.483c-.45.095-.635.335-.55.716.066.308.416.51.752.437a.628.628 0 0 0 .486-.742c-.074-.355-.303-.49-.686-.409l-.002-.002Z"
              fill="#FDEBDC"/>
        <path d="M14.799 22.99c-.077-.355-.366-.553-.706-.484-.336.068-.565.361-.509.647.065.323.484.599.81.528.323-.069.483-.34.405-.694v.002Z"
              fill="#5B7E73"/>
    </g>
    <defs>
        <clipPath id="clip0_1589_4025">
            <path fill="#fff" transform="matrix(-1 0 0 1 49 0)" d="M0 0h49v52H0z"/>
        </clipPath>
    </defs>
</svg>