<svg width="26" height="26" fill="none" xmlns="http://www.w3.org/2000/svg">
    <g clip-path="url('#clip0_4349_2630')">
        <rect x="12.582" y="14.706" width="3.009" height="3.009" rx=".226" stroke="#fff" stroke-width=".287"/>
        <path d="M12.808 19.54h1.82c.103 0 .193.07.218.171l.635 2.558a.226.226 0 0 1-.219.28h-2.454a.226.226 0 0 1-.226-.226v-2.557c0-.125.101-.226.226-.226Z"
              stroke="#fff" stroke-width=".287"/>
        <path d="M4.65.546a1.823 1.823 0 0 0-1.06.923c-.122.248-.138.338-.152.87l-.016.594-.74.016c-.713.016-.754.023-1.059.169a2.05 2.05 0 0 0-.948.946l-.15.318v19.726l.144.293c.18.367.56.744.935.931l.288.144h18.896l.434-.115c2.068-.547 3.595-2.073 4.138-4.133.103-.393.115-.542.113-1.392-.003-1.04-.04-1.25-.359-2.08-.337-.875-1.036-1.798-1.798-2.376l-.256-.193-.013-5.403-.013-5.402-.131-.281a2.233 2.233 0 0 0-.962-.977c-.312-.154-.34-.159-1.066-.175l-.746-.016v-.475c0-.742-.154-1.143-.595-1.549-.333-.306-.696-.423-1.236-.398-.536.024-.815.15-1.164.523-.365.39-.44.604-.463 1.31l-.019.597H6.907l-.018-.574c-.016-.533-.029-.599-.177-.9C6.516 1.068 6.168.74 5.794.6 5.516.497 4.907.467 4.65.546Zm17.383 10.946c0 2.96-.004 3.128-.085 3.097a10.932 10.932 0 0 0-.481-.148c-1.246-.362-2.696-.274-3.87.235-1.524.66-2.779 2.135-3.215 3.78-.11.412-.127.583-.132 1.258-.005.787.01 1.306.094 1.405 0 0 0 .091.042.049-.1.1.548 1.551.908 2.038.255.343.84.94 1.116 1.139l.214.154H2.233l-.23-.136a1.04 1.04 0 0 1-.366-.366l-.136-.23-.013-7.703-.013-7.703H22.034v3.13ZM3.438 4.565c.017.57.025.612.183.904.504.934 1.628 1.21 2.527.62.5-.327.748-.88.748-1.663v-.46h9.756l.018.575c.016.494.037.612.148.851.165.355.505.695.86.86.236.11.344.13.717.13.374 0 .482-.02.718-.13.356-.165.696-.506.858-.86.11-.237.131-.363.15-.855l.02-.578.65.016c.721.018.773.037 1.069.402l.149.185.014 1.387.015 1.387H1.468l.017-1.33c.018-1.452.027-1.503.326-1.784.226-.212.383-.251 1.016-.253l.593-.002.018.598ZM5.614 1.68c.242.224.257.326.257 1.78v1.353l-.122.207a.7.7 0 0 1-1.221-.03c-.111-.213-.107-2.866.005-3.1.186-.393.76-.505 1.08-.21Zm13.232 0c.243.224.258.326.258 1.785 0 1.537-.013 1.6-.372 1.81-.347.204-.825.05-.977-.313-.099-.237-.098-2.846.001-3.036.224-.43.76-.55 1.09-.246Z"
              fill="#fff" stroke="#fff" stroke-width=".055"/>
        <path d="M19.58 17.3c-.197.116-.232.295-.232 1.19v.858h-.858c-.535 0-.898.02-.964.054a.534.534 0 0 0-.16.81l.118.137.932.015.932.015v.854c0 1.095.062 1.24.531 1.24a.473.473 0 0 0 .333-.118l.137-.118.015-.929.015-.93.93-.014.928-.015.118-.137a.473.473 0 0 0 .118-.333c0-.47-.145-.531-1.24-.531h-.854l-.015-.932-.015-.932-.137-.118c-.148-.127-.47-.16-.632-.065Z"
              fill="#404F52"/>
        <rect x="3.061" y="9.872" width="3.009" height="3.009" rx=".226" stroke="#fff" stroke-width=".287"/>
        <rect x="3.061" y="14.706" width="3.009" height="3.009" rx=".226" stroke="#fff" stroke-width=".287"/>
        <rect x="3.061" y="19.54" width="3.009" height="3.009" rx=".226" stroke="#fff" stroke-width=".287"/>
        <rect x="12.582" y="9.872" width="3.009" height="3.009" rx=".226" stroke="#fff" stroke-width=".287"/>
        <rect x="7.821" y="9.872" width="3.009" height="3.009" rx=".226" stroke="#fff" stroke-width=".287"/>
        <rect x="7.821" y="14.706" width="3.009" height="3.009" rx=".226" stroke="#fff" stroke-width=".287"/>
        <rect x="7.821" y="19.54" width="3.009" height="3.009" rx=".226" stroke="#fff" stroke-width=".287"/>
        <rect x="17.343" y="9.872" width="3.009" height="3.009" rx=".226" stroke="#fff" stroke-width=".287"/>
    </g>
    <defs>
        <clipPath id="clip0_4349_2630">
            <path fill="#fff" transform="translate(.5 .5)" d="M0 0h25v25H0z"/>
        </clipPath>
    </defs>
</svg>