<?xml version="1.0" encoding="iso-8859-1"?>
<!-- Uploaded to: SVG Repo, www.svgrepo.com, Generator: SVG Repo Mixer Tools -->
<!DOCTYPE svg PUBLIC "-//W3C//DTD SVG 1.1//EN" "http://www.w3.org/Graphics/SVG/1.1/DTD/svg11.dtd">
<svg fill="#839980" version="1.1" id="Capa_1" xmlns="http://www.w3.org/2000/svg"
     xmlns:xlink="http://www.w3.org/1999/xlink"
     width="800px" height="800px" viewBox="0 0 606.167 606.167"
     xml:space="preserve">
<g>
	<g>
		<circle cx="308.323" cy="513.377" r="31.891"/>
        <circle cx="158.379" cy="456.193" r="31.891"/>
        <circle cx="92.794" cy="309.734" r="31.891"/>
        <circle cx="149.978" cy="159.794" r="31.891"/>
        <circle cx="296.438" cy="94.205" r="31.891"/>
        <circle cx="446.378" cy="151.388" r="31.891"/>
        <circle cx="511.967" cy="297.848" r="31.891"/>
        <circle cx="454.783" cy="447.788" r="31.891"/>
	</g>
    <polygon
            points="320.473,191.451 286.368,191.451 286.368,337.719 341.338,404.245 370.289,383.753 320.473,321.396 	"/>
    <path d="M303.083,38.25c146.029,0,264.833,118.804,264.833,264.833c0,146.029-118.805,264.834-264.833,264.834
		C157.055,567.922,38.25,449.117,38.25,303.083C38.25,157.05,157.055,38.25,303.083,38.25 M303.083,0C135.697,0,0,135.696,0,303.083
		s135.697,303.084,303.083,303.084c167.387,0,303.083-135.697,303.083-303.084S470.475,0,303.083,0L303.083,0z"/>
</g>
</svg>