<svg width="38" height="37" fill="none" xmlns="http://www.w3.org/2000/svg"><g clip-path="url('#clip0_1811_614')"><path d="M15.196 11.37a7.64 7.64 0 0 1 2.844 2.191c.413.504.805.472 1.226-.02a70.046 70.046 0 0 1 1.888-2.118 3.076 3.076 0 0 1 2.807-1.036c2.012.271 3.972 2.563 3.968 4.637a7.486 7.486 0 0 1-.565 3.058c-1.664 3.742-3.835 7.136-7.06 9.753-1.12.91-1.346.964-2.35-.12-2.312-2.486-4.9-4.745-6.584-7.78-.553-.997-1.108-1.965-1.366-3.108-.46-2.027.225-3.707 1.515-5.166.937-1.055 2.223-.924 3.677-.29Z" fill="#FDEBDC"/><path d="m5.485 14.654 5.246-7.552a13.285 13.285 0 0 1 8.546-5.471A13.247 13.247 0 0 1 29.18 3.8a13.349 13.349 0 0 1 5.45 8.582 13.387 13.387 0 0 1-2.163 9.944l-5.245 7.55a13.282 13.282 0 0 1-8.547 5.472 13.245 13.245 0 0 1-9.902-2.171 13.347 13.347 0 0 1-5.45-8.581 13.385 13.385 0 0 1 2.162-9.943Zm3.312 4.275c.599 1.657 1.606 3.044 2.683 4.4 1.915 2.423 4.109 4.56 6.416 6.604 1.059.933 1.572.962 2.81-.078a30.978 30.978 0 0 0 5.82-6.368c1.354-2.005 2.101-4.237 2.98-6.423.809-2.014.338-3.91-.722-5.704-1.131-1.91-2.978-2.56-4.938-2.88-1.666.341-3.053 1.002-4.128 2.206-.988 1.094-.982 1.113-2.024.141-1.278-1.19-2.683-1.935-4.52-1.807-1.873.135-3.095 1.138-4.005 2.659-1.405 2.341-1.265 4.763-.372 7.25Z" fill="#FDEBDC"/><path d="M17.644 17.872c0 .192-.016.387 0 .578.054.561-.095.907-.724.893a4.24 4.24 0 0 0-.943.147c-.77.168-1.065.622-.93 1.45.127.796.688.798 1.28.72 1.522-.208 1.518-.208 1.652 1.466.047.574.012 1.229.842 1.231.677 0 1.155-.474 1.238-1.255a1.99 1.99 0 0 0 0-.742c-.244-.89.09-1.244.937-1.183.186-.014.37-.047.549-.098.637-.097.92-.501.906-1.146-.015-.644-.425-.886-.995-.94-1.333-.127-1.331-.133-1.626-1.45a4.879 4.879 0 0 0-.231-.79c-.207-.516-.55-.777-1.133-.645-.55.127-.855.415-.826 1.016v.746l.004.002Z" fill="#5B7E73"/><path d="M0 15.992c0 .763.453 1.231 1.19 1.227.683 0 1.088-.402 1.083-1.07a1.21 1.21 0 0 0-.344-.854 1.2 1.2 0 0 0-.844-.361c-.696.004-1.086.383-1.086 1.058Z" fill="#D3E1CC"/><path d="M5.15 6.733c0 .762.454 1.228 1.19 1.226.683 0 1.088-.402 1.084-1.069a1.21 1.21 0 0 0-.345-.854 1.2 1.2 0 0 0-.844-.362c-.695.004-1.085.383-1.085 1.059Z" fill="#F6A054"/><path d="M17.802 1.059c0 .762.452 1.229 1.189 1.226.685 0 1.09-.402 1.085-1.069a1.21 1.21 0 0 0-.344-.854A1.2 1.2 0 0 0 18.887 0c-.7 0-1.085.383-1.085 1.059Z" fill="#FFBC50"/><path d="M20.488 35.772c0 .764.454 1.23 1.19 1.228.683 0 1.088-.404 1.084-1.069a1.212 1.212 0 0 0-.345-.855 1.203 1.203 0 0 0-.844-.363c-.702.006-1.085.383-1.085 1.059Z" fill="#F6A054"/><path d="M27.782 31.658c0 .763.452 1.23 1.19 1.227.684 0 1.089-.402 1.085-1.07a1.21 1.21 0 0 0-.345-.854 1.2 1.2 0 0 0-.844-.361c-.698.004-1.085.383-1.085 1.058Z" fill="#D3E1CC"/><path d="M9.643 34.375c0 .819.365 1.23 1.065 1.223a1.144 1.144 0 0 0-.101-2.28c-.65.005-.97.357-.964 1.057Z" fill="#D5751F"/><path d="M1.294 24.342c-.652 0-1.104.44-1.104 1.06 0 .622.433 1.122.961 1.128a1.33 1.33 0 0 0 1.22-1.227c-.004-.592-.425-.967-1.077-.961Z" fill="#5B7E73"/><path d="M34.959 24.656c.342-.68.148-1.3-.512-1.632-.62-.307-1.152-.133-1.445.466a1.207 1.207 0 0 0 .516 1.622c.621.307 1.137.145 1.44-.456Z" fill="#FFBC50"/><path d="M32.672 5.077c.36-.736.227-1.264-.4-1.573a1.133 1.133 0 0 0-1.409.609 1.145 1.145 0 0 0 .475 1.463c.582.297 1.027.13 1.334-.5Z" fill="#D5751F"/><path d="M36.403 15.028c.586.288 1.184.098 1.463-.45.278-.546.115-1.197-.355-1.45a1.328 1.328 0 0 0-1.639.547c-.262.54-.053 1.066.53 1.353Z" fill="#5B7E73"/></g><defs><clipPath id="clip0_1811_614"><path fill="#fff" transform="matrix(-1 0 0 1 38 0)" d="M0 0h38v37H0z"/></clipPath></defs></svg>