<svg width="30" height="30" fill="none" xmlns="http://www.w3.org/2000/svg"><path d="M10 2.5H5A2.5 2.5 0 0 0 2.5 5v20A2.5 2.5 0 0 0 5 27.5h5a2.5 2.5 0 0 0 2.5-2.5V5A2.5 2.5 0 0 0 10 2.5Z" stroke="#C97936" stroke-width="2.5" stroke-linecap="round" stroke-linejoin="round"/><path d="M25 2.5h-5A2.5 2.5 0 0 0 17.5 5v5a2.5 2.5 0 0 0 2.5 2.5h5a2.5 2.5 0 0 0 2.5-2.5V5A2.5 2.5 0 0 0 25 2.5Z" fill="#C97936" stroke="#C97936" stroke-width="2.5" stroke-linecap="round" stroke-linejoin="round"/><path d="M25 17.5h-5a2.5 2.5 0 0 0-2.5 2.5v5a2.5 2.5 0 0 0 2.5 2.5h5a2.5 2.5 0 0 0 2.5-2.5v-5a2.5 2.5 0 0 0-2.5-2.5Z" stroke="#C97936" stroke-width="2.5" stroke-linecap="round" stroke-linejoin="round"/></svg>