<svg width="30" height="30" fill="none" xmlns="http://www.w3.org/2000/svg"><path d="M24 13.5h-4.77c-.63-1.74-2.28-3-4.23-3-1.95 0-3.6 1.26-4.23 3H6c-.495 0-3-.15-3-3V9c0-2.745 2.31-3 3-3h15.27c.63 1.74 2.28 3 4.23 3a4.5 4.5 0 1 0 0-9c-1.95 0-3.6 1.26-4.23 3H6C3.585 3 0 4.59 0 9v1.5c0 4.41 3.585 6 6 6h4.77c.63 1.74 2.28 3 4.23 3 1.95 0 3.6-1.26 4.23-3H24c.495 0 3 .15 3 3V21c0 2.745-2.31 3-3 3H8.73c-.63-1.74-2.28-3-4.23-3a4.5 4.5 0 1 0 0 9c1.95 0 3.6-1.26 4.23-3H24c2.415 0 6-1.605 6-6v-1.5c0-4.395-3.585-6-6-6ZM25.5 3a1.5 1.5 0 1 1 0 3 1.5 1.5 0 0 1 0-3Zm-21 24a1.5 1.5 0 1 1 0-3 1.5 1.5 0 0 1 0 3Z" fill="#d6693b"/></svg>