<svg width="31" height="28" fill="none" xmlns="http://www.w3.org/2000/svg">
    <path d="M9.21.4c.593.574.641 1.558.102 2.197L4.955 7.784c-.267.312-.643.5-1.042.454-.398.071-.783-.097-1.065-.454L.426 5.192c-.568-.551-.568-1.536 0-2.144a1.387 1.387 0 0 1 2.055 0l1.338 1.43L7.157.516A1.387 1.387 0 0 1 9.209.399Zm0 10.372c.593.57.641 1.556.102 2.198l-4.357 5.185c-.267.31-.643.499-1.042.453-.398.072-.783-.097-1.065-.453L.426 15.562c-.568-.55-.568-1.536 0-2.145a1.394 1.394 0 0 1 2.055 0l1.338 1.432 3.338-3.966a1.388 1.388 0 0 1 2.052-.11Zm4.352-6.624c0-1.145.866-2.074 1.938-2.074h13.563c1.071 0 1.937.93 1.937 2.074 0 1.148-.866 2.074-1.938 2.074H15.5c-1.072 0-1.938-.926-1.938-2.074Zm0 10.37c0-1.147.866-2.073 1.938-2.073h13.563c1.071 0 1.937.926 1.937 2.074 0 1.147-.866 2.074-1.938 2.074H15.5c-1.072 0-1.938-.927-1.938-2.074Zm-3.874 10.37c0-1.146.865-2.073 1.937-2.073h17.438c1.071 0 1.937.927 1.937 2.074 0 1.147-.866 2.074-1.938 2.074H11.625c-1.072 0-1.938-.927-1.938-2.074Zm-9.688 0c0-1.717 1.301-3.11 2.906-3.11 1.605 0 2.906 1.393 2.906 3.11 0 1.718-1.3 3.112-2.906 3.112C1.301 28 0 26.607 0 24.889Z"
          fill="#d6693b"/>
</svg>